HIERARCHY
ROOT Hips
{
	OFFSET 0.00000 0.00000 0.00000
	CHANNELS 6 Xposition Yposition Zposition Yrotation Zrotation Xrotation 
	JOINT Lumbar
	{
		OFFSET 0 0 0
		CHANNELS 3 Zrotation Xrotation Yrotation
		JOINT Neck
		{
			OFFSET 0.00 0.2701 0.00
			CHANNELS 3 Zrotation Xrotation Yrotation
			End Site
			{
				OFFSET 0.00 0.1379 0.00
			}
		}
		JOINT RightShoulder
		{
			OFFSET 0.0119 0.2289 0.1181
			CHANNELS 3 Zrotation Xrotation Yrotation
			JOINT RightElbow
			{
				OFFSET 0.00 -0.1475 0.00
				CHANNELS 2 Zrotation Yrotation
				JOINT RightWrist
				{
					OFFSET 0.00 -0.1605 0.00
					CHANNELS 2 Zrotation Xrotation
					End Site
					{
						OFFSET 0.0040 -0.1068 0.0006
					}
				}
			}
		}
		JOINT LeftShoulder
		{
			OFFSET 0.0119 0.2289 -0.1181
			CHANNELS 3 Zrotation Xrotation Yrotation
			JOINT LeftElbow
			{
				OFFSET 0.00 -0.1475 0.00
				CHANNELS 2 Zrotation Yrotation
				JOINT LeftWrist
				{
					OFFSET 0.00 -0.1605 0.00
					CHANNELS 2 Zrotation Xrotation
					End Site
					{
						OFFSET 0.0040 -0.1068 -0.0006
					}
				}
			}
		}
	}
	JOINT RightHip
	{
		OFFSET 0.0316 -0.0424 0.0458
		CHANNELS 3 Zrotation Xrotation Yrotation
		JOINT RightKnee
		{
			OFFSET 0.00 -0.2438 0.00
			CHANNELS 1 Zrotation
			JOINT RightAnkle
			{
				OFFSET 0.00 -0.2449 0.00
				CHANNELS 3 Zrotation Xrotation Yrotation
				End Site
				{
					OFFSET 0.1237 -0.0542 0.0051
				}
			}
		}
	}
	JOINT LeftHip
	{
		OFFSET 0.0316 -0.0424 -0.0458
		CHANNELS 3 Zrotation Xrotation Yrotation
		JOINT LeftKnee
		{
			OFFSET 0.00 -0.2438 0.00
			CHANNELS 1 Zrotation
			JOINT LeftAnkle
			{
				OFFSET 0.00 -0.2449 0.00
				CHANNELS 3 Zrotation Xrotation Yrotation
				End Site
				{
					OFFSET 0.1237 -0.0542 -0.0051
				}
			}
		}
	}
}
MOTION
Frames: 14
Frame Time: 0.02
0.0003 3e-05 0.00027 17.68044 -36.02151 -3.6685 56.98649 1.79411 2.20966 -3.8848 -7.99767 -0.97797 157.64698 -80.08305 -59.64286 10.4425 76.381 -6.9451 -13.22572 -17.27052 108.08202 -55.62796 5.78987 -64.61481 15.7669 3.39465 50.79574 -0.48777 -4.00819 -18.69638 -7.805 -3.92411 -4.22781 51.83071 1.9748 2.71535 -24.18997 -8.74206 4.4239 4.50619
0.00044 4e-05 0.00028 17.65859 -36.00353 -3.6783 57.01521 1.7686 2.24052 -3.92469 -7.97634 -0.97898 157.40677 -80.04459 -60.01787 10.36444 76.28545 -6.90928 -13.15712 -17.45202 108.0616 -55.62791 5.78987 -65.18219 15.57959 3.59855 50.75411 -0.56732 -4.59467 -18.69834 -7.76663 -3.88849 -4.20396 51.786 2.1031 3.24741 -24.18931 -8.68443 4.39268 4.48737
0.00058 5e-05 0.00028 17.63684 -35.98556 -3.68805 57.04391 1.74308 2.27129 -3.9647 -7.95467 -0.98 157.16666 -80.00639 -60.3923 10.28655 76.19008 -6.87325 -13.08836 -17.63312 108.04102 -55.62783 5.78987 -65.74845 15.39244 3.80178 50.71254 -0.64666 -5.17958 -18.70031 -7.72835 -3.85296 -4.18018 51.74135 2.23113 3.77845 -24.18865 -8.62691 4.36152 4.46859
0.00072 6e-05 0.00028 17.61507 -35.96763 -3.69782 57.07256 1.71765 2.30205 -4.0045 -7.93336 -0.98101 156.92724 -79.96806 -60.76613 10.20873 76.09478 -6.83752 -13.01997 -17.81414 108.02067 -55.62785 5.78987 -66.31399 15.2057 4.00509 50.67102 -0.72597 -5.76428 -18.70228 -7.6901 -3.81745 -4.1564 51.69677 2.35906 4.30898 -24.188 -8.56945 4.3304 4.44983
0.00086 6e-05 0.00028 17.59319 -35.94968 -3.70764 57.10118 1.69225 2.33289 -4.04411 -7.91249 -0.98202 156.68755 -79.92948 -61.14063 10.13075 75.99942 -6.80204 -12.95172 -17.99534 108.00046 -55.62769 5.78987 -66.88092 15.01881 4.20898 50.62945 -0.80547 -6.35049 -18.70424 -7.65176 -3.78186 -4.13257 51.65215 2.48722 4.84029 -24.18734 -8.51189 4.29923 4.43104
0.001 7e-05 0.00029 17.57172 -35.93167 -3.71726 57.13006 1.66647 2.36352 -4.08498 -7.88911 -0.98305 156.44632 -79.89211 -61.51507 10.05306 75.90405 -6.76483 -12.88182 -18.17612 107.97907 -55.62765 5.78986 -67.44601 14.83103 4.41073 50.58787 -0.8845 -6.93266 -18.70622 -7.61361 -3.74646 -4.10889 51.60744 2.61498 5.37069 -24.1867 -8.45447 4.2681 4.41227
0.00115 8e-05 0.00029 17.54945 -35.91383 -3.72727 57.1584 1.64152 2.39455 -4.12321 -7.87096 -0.98404 156.20957 -79.8522 -61.8884 9.9749 75.80865 -6.73133 -12.81572 -18.35795 107.96035 -55.62797 5.78987 -68.01282 14.64565 4.61685 50.54639 -0.96436 -7.5222 -18.70816 -7.57513 -3.71072 -4.08493 51.56298 2.7434 5.90237 -24.18602 -8.39683 4.23693 4.39348
0.00129 9e-05 0.00029 17.52793 -35.89579 -3.7369 57.18722 1.61575 2.42518 -4.16399 -7.8477 -0.98507 155.96665 -79.81492 -62.26426 9.89713 75.71355 -6.69404 -12.74535 -18.53809 107.93865 -55.62686 5.78986 -68.58055 14.45734 4.81842 50.50478 -1.04351 -8.10513 -18.71014 -7.53695 -3.67528 -4.06122 51.51827 2.87119 6.43282 -24.18538 -8.33941 4.20579 4.37471
0.00143 0.0001 0.00029 17.50727 -35.87765 -3.74615 57.21674 1.58918 2.45546 -4.2075 -7.81924 -0.98614 155.72405 -79.7797 -62.63749 9.81997 75.61769 -6.65353 -12.67274 -18.71915 107.91531 -55.62836 5.78986 -69.1398 14.26813 5.01657 50.4631 -1.12163 -8.67954 -18.71216 -7.49915 -3.64025 -4.03784 51.47331 2.9984 6.9623 -24.18476 -8.28218 4.17468 4.35594
0.00157 0.00011 0.0003 17.48149 -35.86053 -3.75786 57.24258 1.5678 2.48817 -4.23414 -7.82383 -0.98695 155.50324 -79.72916 -63.00863 9.73967 75.52281 -6.6358 -12.62195 -18.90389 107.90744 -55.62795 5.78987 -69.71897 14.09213 5.24082 50.42208 -1.20516 -9.30169 -18.71391 -7.4592 -3.60299 -4.01262 51.42991 3.12951 7.49901 -24.18396 -8.2236 4.14337 4.3371
0.00171 0.00012 0.0003 17.4666 -35.84099 -3.76421 57.27593 1.5351 2.51548 -4.29707 -7.75676 -0.98832 155.22144 -79.71315 -63.39511 9.6658 75.42804 -6.56734 -12.51945 -19.07508 107.86309 -55.62319 5.78985 -70.27446 13.88321 5.40592 50.37953 -1.2776 -9.82383 -18.71626 -7.42375 -3.57036 -3.99124 51.38315 3.252 8.01928 -24.18357 -8.16803 4.11253 4.31845
0.00189 0.00012 0.00027 17.48109 -35.81687 -3.75688 57.33226 1.47404 2.53021 -4.45488 -7.50685 -0.99124 154.86466 -79.77447 -63.7334 9.61054 75.31671 -6.38317 -12.32192 -19.2236 107.74536 -55.63767 5.78975 -70.6013 13.62562 5.44103 50.3342 -1.31686 -10.06295 -18.72011 -7.40095 -3.55108 -3.98074 51.32783 3.35384 8.50427 -24.18419 -8.11946 4.08245 4.29996
0.00207 0.00011 0.00024 17.50656 -35.79003 -3.7439 57.39573 1.40114 2.53912 -4.64995 -7.18254 -0.99472 154.40961 -79.87341 -64.1029 9.561 75.20944 -6.14595 -12.06511 -19.33327 107.58354 -55.61617 5.78961 -70.92569 13.32815 5.41105 50.28725 -1.34554 -10.20311 -18.72462 -7.38261 -3.53633 -3.97401 51.26915 3.44642 8.97101 -24.18527 -8.07413 4.05293 4.28174
0.00224 0.0001 0.00022 17.52743 -35.76293 -3.73291 57.45432 1.33182 2.54925 -4.83115 -6.88313 -0.99792 153.96457 -79.96689 -64.51827 9.50892 75.11026 -5.91478 -11.80312 -19.48 107.42766 -55.62368 5.78948 -71.3696 13.02054 5.38938 50.23993 -1.38081 -10.39432 -18.72889 -7.36205 -3.51907 -3.9653 51.21138 3.54136 9.43964 -24.18619 -8.02816 4.0235 4.26365
